<svg viewBox="0 0 1172 1752" xmlns="http://www.w3.org/2000/svg">
  <path
    d="M573.693 9.797L562.097 19.5l-.064 54.932c-.035 30.213-.183 55.052-.329 55.197-.146.146-1.906-4.548-3.912-10.432-6.431-18.865-20.574-59.604-21.699-62.506l-1.089-2.81-5.34 6.31c-21.421 25.305-58.454 75.057-67.017 90.033l-2.701 4.725 5.935 16.775c3.265 9.227 6.877 19.155 8.027 22.063 1.151 2.908 2.092 5.602 2.092 5.987 0 .385-6.475-5.764-14.39-13.664-10.289-10.271-14.776-14.125-15.747-13.526-1.841 1.139-17.855 17.974-27.027 28.416-19.353 22.031-36.568 46.332-46.237 65.268C366.446 278.32 362 289.626 362 293.224c0 1.009 3.635 7.261 8.079 13.893 4.443 6.633 7.907 12.23 7.697 12.44-.209.21-6.154-3.475-13.211-8.188l-12.83-8.569-2.38 2.85c-13.786 16.509-28.019 40.631-38.885 65.901-4.983 11.589-14.506 39.531-14.418 42.305.029.904 2.807 3.894 6.174 6.644 3.367 2.75 9.572 7.925 13.788 11.5 30.346 25.729 84.412 71.433 105.902 89.523 26.249 22.095 37.566 31.647 38.033 32.103.246.241-3.781 4.684-8.949 9.874-5.168 5.19-9.195 9.666-8.949 9.946.247.281 12.534 12.637 27.304 27.458C493.539 625.172 497.59 630 493.771 630c-2.858 0-30.853 12-44.546 19.095-58.491 30.307-106.58 74.747-148.154 136.913-14.299 21.381-16.764 26.232-20.164 39.685-3.083 12.199-6.976 34.088-8.858 49.807-4.302 35.929-4.325 36.625-5.045 153.5-.473 76.61-1.084 116.75-1.88 123.5-4.635 39.266-14.301 70.956-28.299 92.772l-3.061 4.772 2.154 9.323c6.506 28.153 22.481 73.729 39.252 111.982 43.021 98.122 103.568 189.775 181.441 274.651 21.527 23.463 73.219 74 75.691 74 .315 0 .388-1.463.162-3.25-.811-6.429-3.938-38.06-7.933-80.25-8.627-91.097-18.6-219.049-22.488-288.5-.569-10.175-1.557-27.275-2.195-38-.637-10.725-1.256-45.326-1.375-76.89l-.216-57.391-9.879-3.882c-12.637-4.968-42.225-19.419-53.312-26.041-38.283-22.861-64.786-48.294-77.056-73.945-3.857-8.063-8.276-22.561-7.345-24.101.249-.412 22.826-.75 50.172-.75h49.718l7.973 2.592c40.897 13.299 69.064 35.12 78.708 60.976 2.162 5.796 2.227 7.281 2.837 64.932.385 36.329.256 60.875-.335 63.879-.779 3.965-1.946 5.84-6.221 10-15.799 15.378-17.63 40.554-4.802 66.043 3.095 6.151 36.01 55.166 43.53 64.824 5.382 6.912 20.261 9.647 28.711 5.277 2.512-1.299 39.011-48.654 49.73-64.523 9.996-14.796 14.761-32.264 12.889-47.247-.967-7.742-5.585-14.947-13.911-21.704-3.76-3.052-7.402-6.899-8.094-8.549-2.958-7.056-3.57-18.997-3.57-69.656v-51.075l4.703-7.075c19.866-29.883 44.675-50.308 70.846-58.33l8.951-2.743 50.879-.391 50.878-.39-.706 2.814c-2.931 11.678-14.765 34.307-25.179 48.148-11.526 15.318-28.123 30.824-44.398 41.478-7.314 4.788-28.564 14.871-38.034 18.047-4.158 1.395-13.237 3.776-20.176 5.292l-12.616 2.757-.551 8.062c-.302 4.434-.795 19.762-1.095 34.062-.3 14.3-.747 28.7-.994 32-.247 3.3-.702 15.9-1.012 28-.31 12.1-.759 25.825-.998 30.5-.239 4.675-.688 15.475-.999 24-.69 18.915-2.307 57.07-2.966 70-.267 5.225-.736 14.9-1.044 21.5-6.581 141.331-16.536 251.951-26.342 292.719l-1.857 7.72 4.085-3.22c13.785-10.863 54.334-51.247 77.534-77.219 102.826-115.112 179.01-243.851 223.69-378l5.329-16-5.833-9c-18.166-28.026-30.932-56.337-36.074-80l-2.173-10 .119-144.149.118-144.149-4.627-10.351c-9.409-21.05-25.227-49.202-39.809-70.851-46.433-68.932-106.258-120.042-169.237-144.582-6.552-2.552-12.06-4.776-12.24-4.941-.18-.164 9.72-10.355 22-22.646 12.28-12.29 22.967-23.156 23.748-24.146 1.293-1.638.67-2.556-6.908-10.173l-8.328-8.372 8.908-9.541c14.644-15.686 68.63-68.897 87.922-86.66 32.454-29.883 58.964-50.631 68.863-53.898 4.612-1.522 4.604-2.135-.255-18.541-6.263-21.146-11.229-32.582-18.767-43.214-6.021-8.494-6.582-8.705-13.667-5.128-3.24 1.635-6.12 2.743-6.401 2.463-.28-.281-.438-6.094-.35-12.918l.16-12.407-16.716-24.898c-42.813-63.771-81.993-118.477-109.701-153.172-9.398-11.768-24.325-28.252-25.534-28.196-.355.016-3.31 4.741-6.565 10.5-3.256 5.758-6.185 10.47-6.509 10.47-.325 0-2.035-11.749-3.8-26.109-3.632-29.549-2.804-27.188-15.749-44.871-23.401-31.963-50.511-57.435-69.629-65.42L585.289.094l-11.596 9.703m34.881 182.69c5.459.818 12.535 2.168 15.725 3 3.189.832 6.028 1.513 6.309 1.513.28 0 .26.405-.046.9-.306.494-2.92 1.458-5.809 2.141-43.453 10.273-78.305 42.364-100.829 92.841-2.606 5.84-5.398 10.752-6.204 10.917-2.954.602-23.413-17.62-26.72-23.799-.641-1.197.57-4.578 4.357-12.168 10.447-20.937 24.745-39.207 40.93-52.3 26.489-21.429 44.577-27.196 72.287-23.045m63.125 27.373c11.537 9.253 26.741 24.62 25.824 26.102-.352.571-3.931 1.038-7.951 1.038-21.351 0-49.252 9.462-67.184 22.784-14.433 10.723-28.745 28.703-34.9 43.846-1.272 3.131-3.09 6.128-4.04 6.659-2.449 1.371-25.432.183-34.225-1.768-4.002-.888-9.277-2.473-11.723-3.521l-4.446-1.906 2.523-6.701c4.023-10.691 13.086-28.056 19.753-37.853 13.005-19.109 35.931-39.059 53.454-46.516 13.039-5.549 30.894-9.057 50.415-9.907 1.969-.085 5.346 2.006 12.5 7.743M507 221.591c0 .324-1.97 2.912-4.379 5.75-5.196 6.122-14.925 20.838-19.126 28.927-3.336 6.424-5.401 7.042-6.834 2.045-.746-2.602-.486-3.861 1.447-6.988 3.256-5.268 13.09-16.595 20.883-24.054 6.031-5.772 8.009-7.175 8.009-5.68M712.705 266.5c3.312 5.874 8.121 19.626 10.755 30.75 2.547 10.757 1.842 12.846-1.405 4.167-2.758-7.37-10.884-23.719-15.538-31.259-2.045-3.313-3.406-6.529-3.024-7.147.382-.618 2.104-.986 3.826-.817 2.466.241 3.611 1.157 5.386 4.306m-24.739 4.248c11.311 15.405 20.539 36.237 25.775 58.187 2.489 10.434 2.757 13.326 2.734 29.565-.025 17.997-.025 18.001-3.404 26.915-1.859 4.904-5.972 12.779-9.139 17.5-6.105 9.099-19.284 23.994-20.338 22.985-.345-.329.483-4.829 1.839-10 8.45-32.226 4.54-63.769-12.102-97.611-4.871-9.905-15.949-27.786-23.83-38.463-1.492-2.021-2.444-4.109-2.116-4.64 1.393-2.253 27.416-10.919 33.37-11.113 1.667-.054 3.547 1.687 7.211 6.675m-216.44 11.502c16.86 27.653 44.982 47.887 75.335 54.206 10.736 2.236 23.911 2.89 32.166 1.598l7.473-1.17 2.772 3.297c1.525 1.813 4.74 7.126 7.146 11.808 5.926 11.531 11.93 31.011 9.557 31.011-.536 0-.975.625-.975 1.389 0 1.639-2.561 2.165-18 3.698-12.881 1.279-29.908.629-43.236-1.65-29.159-4.986-54.947-18.656-70.446-37.342-7.257-8.75-16.559-22.895-15.831-24.073.319-.518.032-1.82-.639-2.894-.962-1.54-.955-3.722.032-10.291 1.629-10.839 4.137-20.869 8.646-34.587.788-2.397 2.216-1.208 6 5m168.583 12.03c15.744 20.371 26.732 44.117 32.032 69.22 1.952 9.249 1.663 32.422-.523 41.902-3.71 16.091-13.935 38.603-18.909 41.632-7.118 4.334-42.801 15.207-44.461 13.547-.344-.343 1.478-4.858 4.047-10.032 13.633-27.454 16.794-54.796 9.659-83.549-2.602-10.486-10.222-26.362-16.779-34.958l-4.925-6.458 1.942-4.532c3.388-7.904 12.967-21.285 21.02-29.362 4.282-4.295 8.249-7.523 8.814-7.174.565.349 4.203 4.743 8.083 9.764m-158.984 83.677c10.042 7.588 27.789 16.251 41.027 20.028 18.417 5.253 28.258 6.261 55.348 5.667 13.2-.29 25.308-.846 26.907-1.236l2.907-.709-.652 7.018c-.759 8.17-5.136 25.796-7.187 28.942-1.898 2.913-10.427 3.789-29.427 3.023-34.987-1.411-68.42-13.546-86.895-31.541-5.52-5.376-12.988-16.316-16.274-23.84-3.671-8.404-7.879-21.579-7.879-24.669 0-2.919.16-2.825 7.25 4.285 3.988 3.999 10.681 9.864 14.875 13.032m69.375 77.088c3.3.604 13.425 1.286 22.5 1.516 17.502.443 17.482.436 14.409 5.189-1.135 1.755-2.384 2.246-5.682 2.232-3.663-.016-18.327-2.226-22.727-3.424-10.496-2.859-19-5.818-19-6.609 0-.543 1.013-.765 2.25-.495 1.237.271 4.95.987 8.25 1.591m51.622 58.62c2.289.916 12.134 8.004 21.879 15.75 9.744 7.747 25.655 20.342 35.358 27.99 17.04 13.431 17.64 14.028 17.619 17.5-.032 5.256-3.331 11.73-7.17 14.071-7.613 4.641-24.216 1.254-32.465-6.623-9.246-8.829-20.856-12.827-44.376-15.283-16.177-1.69-25.457.832-37.967 10.319-10.224 7.753-20.507 11.577-31.194 11.599-8.191.017-11.004-2.571-11.589-10.667l-.433-5.98 4.858-4.562c2.672-2.509 17.153-15.356 32.18-28.548 21.36-18.752 28.342-24.326 32-25.547 6.256-2.087 16.108-2.096 21.3-.019m10.197 83.022c6.326 1.879 17.288 7.313 20.681 10.253 2.168 1.878 2.235 2.102.5 1.682-20.31-4.915-48.065-5.337-70.908-1.078-4.349.81-8.095 1.286-8.325 1.056-.73-.729 12.863-7.895 19.647-10.358 3.59-1.303 9.015-2.76 12.056-3.237 7.048-1.106 19.673-.3 26.349 1.682m15.231 52.87c38.415 3.938 70.537 13.231 103.17 29.847C797.405 713.359 851.072 778.63 877.563 858c3.981 11.929 4.004 23.89.062 32.522-6.834 14.967-20.116 21.512-40.941 20.174-5.051-.324-11.546-1.223-14.434-1.996-2.888-.774-5.249-1.135-5.247-.804.002.332 7.426 8.704 16.498 18.604 9.072 9.9 16.365 18.675 16.206 19.5-.488 2.534-4.501 1.289-19.207-5.96-50.601-24.943-131.898-84.607-224.662-164.878-17.908-15.496-20.223-15.663-34.229-2.461-29.72 28.013-80.102 63.159-144.109 100.527-20.622 12.04-24.381 14.021-31.704 16.712-19.676 7.23-32.9 3.718-39.953-10.608-3.297-6.696-3.343-6.976-3.316-20.311.032-16.188 1.227-20.343 11.027-38.34 13.218-24.273 26.232-41.546 46.903-62.25 8.824-8.839 19.418-18.787 23.543-22.107 32.361-26.048 73.928-49.032 112.467-62.187 6.391-2.181 11.262-4.165 10.826-4.408-1.457-.813-18.68 1.263-28.221 3.403-32.933 7.383-78.377 27.827-128.072 57.615a16038.96 16038.96 0 01-18.25 10.931c-1.992 1.169-.032-1.474 8.087-10.909 29.508-34.29 65.565-57.354 111.163-71.108 19.623-5.919 48.134-10.921 68.5-12.02 11.718-.631 42.176.392 57.05 1.916M606.957 867.5c2.166 12.65 6 35.15 8.519 50 2.519 14.85 4.778 27.563 5.02 28.25.243.688 1.13 1.25 1.973 1.25 1.352 0 1.531-5.215 1.531-44.587v-44.586l8.25 7.705c32.76 30.596 99.387 68.338 193.214 109.45 17.207 7.539 49.976 21.24 55.928 23.383 2.101.756 2.13-2.749-.53 64.009-1.34 33.623-.763 51.747 2.055 64.626 6.626 30.281 22.72 68.18 45.728 107.684 7.845 13.469 9.318 16.656 8.783 19-3.713 16.243-14.707 47.22-23.991 67.592-11.895 26.102-39.286 77.921-56.15 106.224-38.816 65.145-81.167 116.668-114.583 139.397-4.783 3.254-4.773 3.235 3.691-6.887 15.976-19.106 36.708-52.64 56.742-91.78 5.425-10.599 9.863-19.711 9.863-20.25 0-2.676-3.112-.299-7.555 5.77-9.757 13.329-23.103 28.121-45.338 50.251-21.715 21.613-49.003 47.085-51.29 47.879-1.044.362-.8-14.627.731-44.88.265-5.225 1.159-27.275 1.987-49 1.828-47.941 3.154-81.635 4.469-113.5 1.049-25.453 2.35-58.01 3.955-99 .538-13.75 1.281-31.187 1.65-38.75l.672-13.75 4.109.006 4.11.006 12 44.202 12 44.202.5-32.83.5-32.83 5 13.344 5 13.344.271-31.972.27-31.972 8.497-3.89c12.952-5.931 20.017-10.943 31.012-22.002 25.336-25.481 43.502-65.265 53.383-116.909 1.137-5.94 2.067-11.453 2.067-12.25 0-1.248-7.634-1.449-55-1.449h-55v-23.406l-3.899 3.808c-3.409 3.329-3.967 3.574-4.437 1.953-.296-1.02-2.254-7.93-4.351-15.355l-3.813-13.5-.268 23.14-.268 23.139-28.732.489c-31.25.532-33.88.943-46.232 7.21-16.29 8.266-32.113 24.256-42.409 42.856l-3.413 6.166-1.339 56.5c-1.901 80.22-1.806 104.809.437 112.934 2.086 7.555 6.005 16.688 9.969 23.235 1.554 2.567 3.332 7.078 3.95 10.024 1.006 4.798.847 6.317-1.523 14.58-4.656 16.234-14.148 32.406-26.897 45.827-6.267 6.598-7.43 7.4-10.726 7.4-4.545 0-11.53-4.699-17.22-11.584-8.155-9.869-15.122-28.622-17.889-48.155-1.412-9.969-.86-13.39 3.109-19.261 4.165-6.162 5.492-9.5 7.621-19.181 1.694-7.702 1.83-14.667 1.83-93.894v-85.575l-4.239-8.425c-2.331-4.634-5.554-9.849-7.16-11.591-9.388-10.172-23.005-18.126-39.641-23.157-19.155-5.793-16.956-5.677-107.96-5.677h-84l.088 13c.136 20.129 3.968 35.605 13.867 56 15.264 31.451 43.243 61.58 80.272 86.439l11.959 8.029 9.831 29.508c5.408 16.23 9.946 29.394 10.086 29.254.243-.243 1.151-10.243 3.418-37.671.565-6.843 1.169-12.582 1.341-12.755.261-.261 6.608 1.605 7.38 2.17.239.175 2.233 50.389 4.25 107.026.569 15.95 1.477 41.15 2.019 56 .542 14.85 1.432 39.375 1.977 54.5.545 15.125 1.235 33.8 1.533 41.5.687 17.714 2.154 59.274 3.458 98 .555 16.5 1.216 32.138 1.468 34.75.252 2.612.099 4.75-.34 4.75-2.751 0-60.222-56.795-94.107-93l-12.5-13.356 6.5 3.721c16.551 9.476 62.326 30.642 63.573 29.395.222-.221-4.367-4.646-10.197-9.831-55.485-49.353-109.873-143.2-142.387-245.688l-4.206-13.258 3.686-4.08c13.565-15.016 22.992-38.556 27.591-68.903.709-4.675 1.38-8.633 1.493-8.795.112-.163 4.752 1.055 10.31 2.706 12.812 3.806 45.137 8.482 45.137 6.53 0-.375-3.728-5.014-8.284-10.311-15.683-18.233-24.337-31.451-35.765-54.63-16.588-33.646-27.975-75.205-29.167-106.453l-.284-7.453 9-2.342c15.09-3.927 46.102-14.685 63-21.854 49.104-20.833 96.536-49.533 149.5-90.459 5.772-4.461 27.843-23.142 31.816-26.931 1.274-1.215 2.565-1.96 2.87-1.655.544.543 3.033 11.846 5.869 26.647.79 4.125 1.867 9.525 2.393 12 .525 2.475 5.048 24.525 10.05 49 5.002 24.475 10.712 52.375 12.688 62a6802.578 6802.578 0 015.292 26c2.241 11.205 2.586 9.339 3.983-21.5.623-13.75 2.218-45.925 3.544-71.5 1.327-25.575 2.903-56.85 3.503-69.5.601-12.65 1.367-25.475 1.704-28.5l.613-5.5.846 4.5c.466 2.475 2.62 14.85 4.786 27.5"
    fill-rule="evenodd"
  />
</svg>
